<?xml version="1.0" encoding="UTF-8" standalone="no"?>
<svg
   xmlns:dc="http://purl.org/dc/elements/1.1/"
   xmlns:cc="http://creativecommons.org/ns#"
   xmlns:rdf="http://www.w3.org/1999/02/22-rdf-syntax-ns#"
   xmlns:svg="http://www.w3.org/2000/svg"
   xmlns="http://www.w3.org/2000/svg"
   id="svg20"
   xml:space="preserve"
   enable-background="new 7.5 7.5 50 50"
   viewBox="7.5 7.5 50 62.5"
   y="0px"
   x="0px"
   version="1.1"><metadata
     id="metadata26"><rdf:RDF><cc:Work
         rdf:about=""><dc:format>image/svg+xml</dc:format><dc:type
           rdf:resource="http://purl.org/dc/dcmitype/StillImage" /><dc:title></dc:title></cc:Work></rdf:RDF></metadata><defs
     id="defs24" /><circle
     id="circle2"
     r="0.917"
     cy="40.508102"
     cx="23.25" /><path
     id="circle4"
     d="m 34.887827,47.139379 a 1.75,1.75 0 0 0 -1.301632,-0.204892 l -0.892606,2.882456 a 1.75,1.75 0 0 0 0.388335,0.320556 1.75,1.75 0 0 0 2.40201,-0.596108 1.75,1.75 0 0 0 -0.596107,-2.402012 z" /><path
     id="path4744"
     transform="translate(7.5,7.5)"
     d="m 33.417969,8.9628906 v 5.3476564 l 3.640625,1.097656 z" /><path
     id="path4742"
     d="m 46.654222,19.450892 3.734175,8.172928 -5.568748,-2.214652 -0.104773,1.216199 1.245947,1.648177 8.752739,0.754028 z" /><path
     id="polygon6"
     transform="translate(7.5,7.5)"
     d="m 33.417969,18.070312 v 0.04102 h 0.03711 z" /><path
     id="path8"
     d="m 38.042,35.008102 c 0,-0.827 -0.673,-1.5 -1.5,-1.5 h -8.084 c -0.827,0 -1.5,0.673 -1.5,1.5 v 1.083 h 11.084 z" /><path
     id="path4738"
     d="M 35.364198,44.017422 C 34.69863,43.771103 34.014647,43.694241 33.3493,43.744478 l -0.234465,2.085369 c 0.496912,-0.109338 1.028422,-0.08589 1.540283,0.103542 1.422695,0.526525 2.151092,2.110828 1.624567,3.533523 -0.526524,1.422695 -2.110827,2.151091 -3.533522,1.624566 -0.07732,-0.02862 -0.14336,-0.07252 -0.216487,-0.107191 l -0.236975,2.086522 c 2.41078,0.743996 5.017061,-0.501098 5.902952,-2.894817 0.917339,-2.478697 -0.352759,-5.24123 -2.831455,-6.15857 z" /><path
     id="path10"
     transform="translate(7.5,7.5)"
     d="m 22.119141,34.744141 c -1.153971,0.875719 -1.91211,2.249122 -1.91211,3.80664 0,0.610979 0.126481,1.190748 0.335938,1.728516 l 3.628906,2.792969 -0.529297,-2.144532 C 22.814711,40.45339 22.25,39.571886 22.25,38.550781 c 0,-0.547348 0.164949,-1.055547 0.441406,-1.484375 z" /><path
     id="path4764"
     transform="translate(7.5,7.5)"
     d="M 14.125 29.591797 C 13.298 29.591797 12.625 30.264797 12.625 31.091797 L 12.625 42.482422 L 17.986328 47.507812 L 19.304688 47.507812 L 15.462891 36.367188 L 19.261719 39.291016 C 19.230379 39.047551 19.207031 38.802632 19.207031 38.550781 C 19.207031 36.5151 20.266185 34.722682 21.859375 33.689453 L 20.871094 29.677734 L 27.658203 33.410156 C 27.733653 33.449346 27.807389 33.490836 27.880859 33.533203 L 31.644531 35.603516 L 28.771484 30.148438 L 29.527344 29.591797 L 14.125 29.591797 z M 15.75 31.091797 C 16.807 31.091797 17.667969 31.950813 17.667969 33.007812 C 17.667969 34.064813 16.807 34.923828 15.75 34.923828 C 14.693 34.923828 13.832031 34.064813 13.832031 33.007812 C 13.832031 31.950813 14.693 31.091797 15.75 31.091797 z " /><path
     id="path4762"
     transform="translate(7.5,7.5)"
     d="m 29.595703,29.591797 0.984375,0.984375 -0.226562,-0.984375 z" /><path
     id="path4760"
     transform="translate(7.5,7.5)"
     d="m 31.785156,29.591797 1.097656,0.513672 -0.232421,-0.513672 z" /><path
     id="path4758"
     d="m 42.650155,39.991401 1.016808,2.627547 -3.20223,-1.719667 0.553158,3.167583 -1.078748,-1.203026 2.584495,5.627403 -3.80444,-2.370571 c 0.359749,0.809667 0.544404,1.712239 0.493016,2.655744 -0.164303,3.01662 -2.624044,5.369717 -5.588843,5.467813 l 0.247463,1.31032 -1.677911,-1.442998 C 30.259502,53.690036 28.704632,52.31324 28.0188,50.519847 l -2.118835,-1.82301 2.410866,8.456131 15.488762,0.843607 c 0.825776,0.04498 1.534382,-0.590426 1.579358,-1.416202 l 0.811211,-14.893939 c 0.04498,-0.825776 -0.590426,-1.534381 -1.416202,-1.579358 z" /><path
     id="path4754"
     transform="translate(7.5,7.5)"
     d="m 22.388672,31.654297 0.382812,1.552734 c 0.523971,-0.219399 1.085615,-0.365716 1.673828,-0.421875 z" /><path
     id="path12"
     transform="translate(7.5,7.5)"
     d="m 12.625,43.849609 v 2.158203 c 0,0.827 0.673,1.5 1.5,1.5 h 2.402344 z" /><path
     transform="translate(7.5,7.5)"
     id="path4668"
     d="m 5.7070312,7.2363281 -0.1872634,44.9339489 1.616951,-6.721058 3.3183592,4.662109 -2.0312499,-11.566406 3.2011719,3 V 31.091797 c 0,-1.378 1.122,-2.5 2.5,-2.5 h 4.332031 v -1.083985 c 0,-1.378 1.122,-2.5 2.5,-2.5 h 8.085938 c 0.81804,0 1.537834,0.400879 1.99414,1.009766 l -3.072265,-6.80664 6.693359,4.326171 -0.974609,-1.27539 0.607422,-0.757813 3.421875,1.566406 -0.136719,-0.384765 -3.220703,-3.574219 h -1.4375 c -0.276,0 -0.5,-0.224 -0.5,-0.5 v -1.65039 l -3.650391,-4.050782 3.650391,1.09961 V 7.2363281 Z"
     style="opacity:1;fill:#000000;fill-opacity:1" /><path
     id="path4666"
     transform="translate(7.5,7.5)"
     d="m 31.908203,14.900391 0.509766,0.566406 v -0.412109 z"
     style="opacity:1;fill:#000000;fill-opacity:1" /><path
     id="path4664"
     d="m 45.31769,29.469486 2.520867,3.248014 0.778861,2.861594 -3.610313,-1.986516 1.35389,2.071506 -0.721043,0.671656 -5.939239,-4.488003 2.522924,6.90055 2.57315,0.188942 c 1.375298,0.100986 2.411123,1.302065 2.310211,2.676365 L 46.014684,56.48956 c -0.100986,1.375297 -1.301068,2.411195 -2.676365,2.31021 l -15.125296,-1.110623 0.651637,2.460577 -0.850884,0.466285 -2.907623,-3.154993 -3.459435,-0.25402 c -1.374301,-0.100912 -2.411196,-1.301067 -2.310211,-2.676365 l 0.226703,-3.08739 -1.576284,-1.709868 1.099208,10.90078 -0.925576,0.310008 -2.920883,-4.814719 -1.949261,6.91684 37.97199,2.788211 2.624015,-35.735822 z"
     style="opacity:1;fill:#000000;fill-opacity:1" /><path
     id="path4662"
     transform="translate(7.5,7.5)"
     d="m 31.492188,27.025391 c 0.03086,0.156659 0.05078,0.31687 0.05078,0.482421 v 1.083985 h 0.65625 z"
     style="opacity:1;fill:#000000;fill-opacity:1" /><path
     id="path14"
     transform="translate(7.5,7.5)"
     d="m 19.054688,48.507812 0.880859,0.826172 -0.285156,-0.826172 z"
     style="opacity:1;fill:#000000;fill-opacity:1" /><path
     id="path4541"
     d="M 4.8516949,79.004237 64.173729,-1.7690678"
     style="fill:#000000;stroke:none;stroke-width:1px;stroke-linecap:butt;stroke-linejoin:miter;stroke-opacity:1;fill-opacity:1" /></svg>