<?xml version="1.0" encoding="UTF-8" standalone="no"?>
<svg
   xmlns:dc="http://purl.org/dc/elements/1.1/"
   xmlns:cc="http://creativecommons.org/ns#"
   xmlns:rdf="http://www.w3.org/1999/02/22-rdf-syntax-ns#"
   xmlns:svg="http://www.w3.org/2000/svg"
   xmlns="http://www.w3.org/2000/svg"
   xmlns:sodipodi="http://sodipodi.sourceforge.net/DTD/sodipodi-0.dtd"
   xmlns:inkscape="http://www.inkscape.org/namespaces/inkscape"
   version="1.1"
   x="0px"
   y="0px"
   viewBox="7.5 7.5 50 62.5"
   enable-background="new 7.5 7.5 50 50"
   xml:space="preserve"
   id="svg20"
   sodipodi:docname="photo.svg"
   inkscape:version="0.92.3 (unknown)"><metadata
     id="metadata26"><rdf:RDF><cc:Work
         rdf:about=""><dc:format>image/svg+xml</dc:format><dc:type
           rdf:resource="http://purl.org/dc/dcmitype/StillImage" /></cc:Work></rdf:RDF></metadata><defs
     id="defs24" /><sodipodi:namedview
     pagecolor="#ffffff"
     bordercolor="#666666"
     borderopacity="1"
     objecttolerance="10"
     gridtolerance="10"
     guidetolerance="10"
     inkscape:pageopacity="0"
     inkscape:pageshadow="2"
     inkscape:window-width="1600"
     inkscape:window-height="845"
     id="namedview22"
     showgrid="false"
     inkscape:zoom="3.776"
     inkscape:cx="25"
     inkscape:cy="31.25"
     inkscape:window-x="0"
     inkscape:window-y="27"
     inkscape:window-maximized="1"
     inkscape:current-layer="svg20" /><circle
     cx="23.25"
     cy="40.508102"
     r="0.917"
     id="circle2" /><circle
     cx="32.5"
     cy="46.050102"
     r="1.75"
     id="circle4" /><polygon
     points="40.917,9.354 40.917,19.521 51.085,19.521 "
     id="polygon6"
     transform="translate(0,6.0911017)" /><path
     d="m 38.042,35.008102 c 0,-0.827 -0.673,-1.5 -1.5,-1.5 h -8.084 c -0.827,0 -1.5,0.673 -1.5,1.5 v 1.083 h 11.084 z"
     id="path8"
     inkscape:connector-curvature="0" /><path
     d="m 32.5,41.258102 c -2.642,0 -4.792,2.149 -4.792,4.792 0,2.642 2.15,4.791 4.792,4.791 2.643,0 4.792,-2.149 4.792,-4.791 0,-2.643 -2.149,-4.792 -4.792,-4.792 z m 0,7.542 c -1.517,0 -2.75,-1.233 -2.75,-2.75 0,-1.517 1.233,-2.75 2.75,-2.75 1.517,0 2.75,1.233 2.75,2.75 0,1.517 -1.233,2.75 -2.75,2.75 z"
     id="path10"
     inkscape:connector-curvature="0" /><path
     d="m 21.625,37.091102 c -0.827,0 -1.5,0.673 -1.5,1.5 v 14.917 c 0,0.827 0.673,1.5 1.5,1.5 h 21.75 c 0.827,0 1.5,-0.673 1.5,-1.5 v -14.917 c 0,-0.827 -0.673,-1.5 -1.5,-1.5 z m 1.625,5.333 c -1.057,0 -1.917,-0.86 -1.917,-1.917 0,-1.057 0.86,-1.916 1.917,-1.916 1.057,0 1.917,0.859 1.917,1.916 0,1.057 -0.86,1.917 -1.917,1.917 z m 9.25,9.417 c -3.194,0 -5.792,-2.598 -5.792,-5.791 0,-3.193 2.598,-5.792 5.792,-5.792 3.193,0 5.792,2.599 5.792,5.792 0,3.193 -2.599,5.791 -5.792,5.791 z"
     id="path12"
     inkscape:connector-curvature="0" /><path
     d="m 13.208,14.737102 v 47.707 h 38.584 v -35.832 H 40.417 c -0.276,0 -0.5,-0.224 -0.5,-0.5 v -11.375 z m 30.167,21.354 c 1.379,0 2.5,1.122 2.5,2.5 v 14.917 c 0,1.379 -1.121,2.5 -2.5,2.5 h -21.75 c -1.378,0 -2.5,-1.121 -2.5,-2.5 v -14.917 c 0,-1.378 1.122,-2.5 2.5,-2.5 h 4.333 v -1.083 c 0,-1.378 1.122,-2.5 2.5,-2.5 h 8.084 c 1.379,0 2.5,1.122 2.5,2.5 v 1.083 z"
     id="path14"
     inkscape:connector-curvature="0" /></svg>